<?xml version="1.0" encoding="UTF-8" standalone="no"?>
<!-- Generator: Adobe Illustrator 22.0.0, SVG Export Plug-In . SVG Version: 6.00 Build 0)  -->

<svg
   xmlns:dc="http://purl.org/dc/elements/1.1/"
   xmlns:cc="http://creativecommons.org/ns#"
   xmlns:rdf="http://www.w3.org/1999/02/22-rdf-syntax-ns#"
   xmlns:svg="http://www.w3.org/2000/svg"
   xmlns="http://www.w3.org/2000/svg"
   xmlns:sodipodi="http://sodipodi.sourceforge.net/DTD/sodipodi-0.dtd"
   xmlns:inkscape="http://www.inkscape.org/namespaces/inkscape"
   version="1.1"
   id="Layer_1"
   x="0px"
   y="0px"
   viewBox="0 0 70.154312 62.767518"
   xml:space="preserve"
   sodipodi:docname="iconHearts.svg"
   inkscape:version="0.92.3 (2405546, 2018-03-11)"
   width="70.154312"
   height="62.767517"><metadata
   id="metadata4565"><rdf:RDF><cc:Work
       rdf:about=""><dc:format>image/svg+xml</dc:format><dc:type
         rdf:resource="http://purl.org/dc/dcmitype/StillImage" /></cc:Work></rdf:RDF></metadata><defs
   id="defs4563" /><sodipodi:namedview
   pagecolor="#ffffff"
   bordercolor="#666666"
   borderopacity="1"
   objecttolerance="10"
   gridtolerance="10"
   guidetolerance="10"
   inkscape:pageopacity="0"
   inkscape:pageshadow="2"
   inkscape:window-width="1366"
   inkscape:window-height="705"
   id="namedview4561"
   showgrid="false"
   inkscape:zoom="12.531715"
   inkscape:cx="42.140477"
   inkscape:cy="21.946246"
   inkscape:window-x="1358"
   inkscape:window-y="-8"
   inkscape:window-maximized="1"
   inkscape:current-layer="Layer_1" />
<g
   id="g4528"
   transform="matrix(2.4615549,0,0,1.8353075,-392.61801,-273.09376)">
	<polygon
   style="fill:#f3bdad"
   points="166.5,158.9 165.9,149.9 160.2,153.4 "
   id="polygon4494" />
	<polygon
   style="fill:#ef7b73"
   points="165.9,149.9 173.5,153.2 173.1,158.9 167,165 "
   id="polygon4496" />
	<polygon
   style="fill:#ef7b77"
   points="173.5,153.2 180.5,148.8 187.1,152.3 180.5,159.2 "
   id="polygon4498" />
	<polygon
   style="fill:#ef7b79"
   points="188,161.1 184.1,169.9 178.8,165 180.5,158.9 "
   id="polygon4500" />
	<polygon
   style="fill:#ea5550"
   points="184.2,169.6 178.8,165 177.9,178.2 "
   id="polygon4502" />
	<polygon
   style="fill:#eb5c5c"
   points="172.7,169.4 177.9,178.2 173.6,183 "
   id="polygon4504" />
	<polygon
   style="fill:#ef7a73"
   points="177.9,178.2 172.7,169.4 178.8,165 "
   id="polygon4506" />
	<polygon
   style="fill:#f4a69e"
   points="172.7,169.4 167.8,176.9 173.6,183 "
   id="polygon4508" />
	<polygon
   style="fill:#ea565a"
   points="172.7,169.4 162.6,169.4 167.8,176.9 "
   id="polygon4510" />
	<polygon
   style="fill:#ee8472"
   points="172.7,169.4 167,165 162.6,169.4 "
   id="polygon4512" />
	<polygon
   style="fill:#e6204b"
   points="172.7,169.4 167,165 178.8,165 "
   id="polygon4514" />
	<polygon
   style="fill:#ef7c74"
   points="178.8,165 167,165 180.5,159.2 "
   id="polygon4516" />
	<polygon
   style="fill:#f4a295"
   points="167,165 173.1,158.9 175.7,161.5 "
   id="polygon4518" />
	<polygon
   style="fill:#f7b6ae"
   points="173.5,153.2 173.1,158.9 175.7,161.5 180.5,159.2 "
   id="polygon4520" />
	<polygon
   style="fill:#f0817a"
   points="166.5,158.9 160.4,153.2 159.5,162 "
   id="polygon4522" />
	<polygon
   style="fill:#ea5254"
   points="159.5,162 162.6,169.4 167,165 166.5,158.9 "
   id="polygon4524" />
	<polygon
   style="fill:#ea504d"
   points="180.5,159.2 187.1,152.3 188,161.1 "
   id="polygon4526" />
</g>
<g
   id="g4530"
   transform="translate(20.827153,13.747584)">
</g>
<g
   id="g4532"
   transform="translate(20.827153,13.747584)">
</g>
<g
   id="g4534"
   transform="translate(20.827153,13.747584)">
</g>
<g
   id="g4536"
   transform="translate(20.827153,13.747584)">
</g>
<g
   id="g4538"
   transform="translate(20.827153,13.747584)">
</g>
<g
   id="g4540"
   transform="translate(20.827153,13.747584)">
</g>
<g
   id="g4542"
   transform="translate(20.827153,13.747584)">
</g>
<g
   id="g4544"
   transform="translate(20.827153,13.747584)">
</g>
<g
   id="g4546"
   transform="translate(20.827153,13.747584)">
</g>
<g
   id="g4548"
   transform="translate(20.827153,13.747584)">
</g>
<g
   id="g4550"
   transform="translate(20.827153,13.747584)">
</g>
<g
   id="g4552"
   transform="translate(20.827153,13.747584)">
</g>
<g
   id="g4554"
   transform="translate(20.827153,13.747584)">
</g>
<g
   id="g4556"
   transform="translate(20.827153,13.747584)">
</g>
<g
   id="g4558"
   transform="translate(20.827153,13.747584)">
</g>
</svg>