<?xml version="1.0" encoding="UTF-8" standalone="no"?>
<!-- Generator: Adobe Illustrator 22.0.0, SVG Export Plug-In . SVG Version: 6.00 Build 0)  -->

<svg
   xmlns:dc="http://purl.org/dc/elements/1.1/"
   xmlns:cc="http://creativecommons.org/ns#"
   xmlns:rdf="http://www.w3.org/1999/02/22-rdf-syntax-ns#"
   xmlns:svg="http://www.w3.org/2000/svg"
   xmlns="http://www.w3.org/2000/svg"
   xmlns:sodipodi="http://sodipodi.sourceforge.net/DTD/sodipodi-0.dtd"
   xmlns:inkscape="http://www.inkscape.org/namespaces/inkscape"
   version="1.1"
   id="Layer_1"
   x="0px"
   y="0px"
   viewBox="0 0 362.6 283"
   style="enable-background:new 0 0 362.6 283;"
   xml:space="preserve"
   sodipodi:docname="iconSpades.svg"
   inkscape:version="0.92.3 (2405546, 2018-03-11)"><metadata
   id="metadata4723"><rdf:RDF><cc:Work
       rdf:about=""><dc:format>image/svg+xml</dc:format><dc:type
         rdf:resource="http://purl.org/dc/dcmitype/StillImage" /></cc:Work></rdf:RDF></metadata><defs
   id="defs4721" /><sodipodi:namedview
   pagecolor="#ffffff"
   bordercolor="#666666"
   borderopacity="1"
   objecttolerance="10"
   gridtolerance="10"
   guidetolerance="10"
   inkscape:pageopacity="0"
   inkscape:pageshadow="2"
   inkscape:window-width="1366"
   inkscape:window-height="705"
   id="namedview4719"
   showgrid="false"
   inkscape:zoom="6.2658576"
   inkscape:cx="36.941492"
   inkscape:cy="250.91103"
   inkscape:window-x="1358"
   inkscape:window-y="-8"
   inkscape:window-maximized="1"
   inkscape:current-layer="Layer_1" />
<g
   id="g4686"
   transform="translate(-154.2,-161.66981)">
	<polygon
   style="fill:#504d49"
   points="164.5,162.2 160.7,165.7 164.5,170.7 "
   id="polygon4646" />
	<polygon
   style="fill:#999591"
   points="164.5,162.2 168.4,166 164.5,170.7 "
   id="polygon4648" />
	<polygon
   style="fill:#4f4c4a"
   points="168.4,166 171.6,170.7 164.5,170.7 "
   id="polygon4650" />
	<polygon
   style="fill:#4d4a46"
   points="168.6,173.7 171.6,170.7 174,176 169.3,178.1 "
   id="polygon4652" />
	<polygon
   style="fill:#6d6a64"
   points="174,176 173.7,182 169.3,178.1 "
   id="polygon4654" />
	<polygon
   style="fill:#b2afab"
   points="174,182 169.9,184.3 169.3,178.1 "
   id="polygon4656" />
	<polygon
   style="fill:#504d49"
   points="169.9,184.3 164.8,182 169.3,178.1 "
   id="polygon4658" />
	<polygon
   style="fill:#75726e"
   points="169.3,178.1 165.8,181.1 164.5,178.1 168.6,173.7 "
   id="polygon4660" />
	<polygon
   style="fill:#020203"
   points="160.6,173.8 168.5,173.8 164.5,178.1 "
   id="polygon4662" />
	<polygon
   style="fill:#726e6c"
   points="164.5,170.7 168.4,174 171.6,170.7 "
   id="polygon4664" />
	<polygon
   style="fill:#73706c"
   points="160.7,165.7 160.7,174 164.5,170.7 "
   id="polygon4666" />
	<polygon
   style="fill:#4e4b48"
   points="160.7,165.7 156.9,170.7 160.7,174 "
   id="polygon4668" />
	<polygon
   style="fill:#74716e"
   points="160.7,174 156.9,170.7 154.2,176.3 159.8,178.7 "
   id="polygon4670" />
	<polygon
   style="fill:#aaa6a2"
   points="159.8,178.7 160.7,174 164.5,178.1 163.7,181.1 "
   id="polygon4672" />
	<polygon
   style="fill:#605d5b"
   points="164.5,170.7 164.5,174 168.7,174 "
   id="polygon4674" />
	<polygon
   style="fill:#9b9894"
   points="164.5,170.7 160.7,174 164.5,174 "
   id="polygon4676" />
	<polygon
   style="fill:#514e4c"
   points="154.2,176.3 154.8,182.5 159.8,178.7 "
   id="polygon4678" />
	<polygon
   style="fill:#9a9795"
   points="159.8,178.7 159.2,184.9 154.8,182.5 "
   id="polygon4680" />
	<polygon
   style="fill:#74716f"
   points="159.2,184.9 163.7,181.1 159.8,178.7 "
   id="polygon4682" />
	<polygon
   style="fill:#393531"
   points="164.5,178.1 161.6,185.5 167.8,185.5 "
   id="polygon4684" />
</g>
<g
   id="g4688">
</g>
<g
   id="g4690">
</g>
<g
   id="g4692">
</g>
<g
   id="g4694">
</g>
<g
   id="g4696">
</g>
<g
   id="g4698">
</g>
<g
   id="g4700">
</g>
<g
   id="g4702">
</g>
<g
   id="g4704">
</g>
<g
   id="g4706">
</g>
<g
   id="g4708">
</g>
<g
   id="g4710">
</g>
<g
   id="g4712">
</g>
<g
   id="g4714">
</g>
<g
   id="g4716">
</g>
</svg>