<?xml version="1.0" encoding="UTF-8" standalone="no"?>
<!-- Generator: Adobe Illustrator 22.0.0, SVG Export Plug-In . SVG Version: 6.00 Build 0)  -->

<svg
   xmlns:dc="http://purl.org/dc/elements/1.1/"
   xmlns:cc="http://creativecommons.org/ns#"
   xmlns:rdf="http://www.w3.org/1999/02/22-rdf-syntax-ns#"
   xmlns:svg="http://www.w3.org/2000/svg"
   xmlns="http://www.w3.org/2000/svg"
   xmlns:sodipodi="http://sodipodi.sourceforge.net/DTD/sodipodi-0.dtd"
   xmlns:inkscape="http://www.inkscape.org/namespaces/inkscape"
   version="1.1"
   id="Layer_1"
   x="0px"
   y="0px"
   viewBox="0 0 640 480"
   style="enable-background:new 0 0 640 480;"
   xml:space="preserve"
   sodipodi:docname="ikinci.svg"
   inkscape:version="0.92.3 (2405546, 2018-03-11)"><metadata
   id="metadata4073"><rdf:RDF><cc:Work
       rdf:about=""><dc:format>image/svg+xml</dc:format><dc:type
         rdf:resource="http://purl.org/dc/dcmitype/StillImage" /><dc:title></dc:title></cc:Work></rdf:RDF></metadata><defs
   id="defs4071" /><sodipodi:namedview
   pagecolor="#ffffff"
   bordercolor="#666666"
   borderopacity="1"
   objecttolerance="10"
   gridtolerance="10"
   guidetolerance="10"
   inkscape:pageopacity="0"
   inkscape:pageshadow="2"
   inkscape:window-width="1366"
   inkscape:window-height="705"
   id="namedview4069"
   showgrid="false"
   inkscape:zoom="0.55833333"
   inkscape:cx="523.0248"
   inkscape:cy="178.94778"
   inkscape:window-x="1358"
   inkscape:window-y="-8"
   inkscape:window-maximized="1"
   inkscape:current-layer="Layer_1" />
<rect
   style="fill:#494643;"
   width="640"
   height="480"
   id="rect3894" />
<path
   style="fill:#FFFFFF;"
   d="M450.8,462.5H188.2c-10.3,0-18.7-8.4-18.7-18.7V35.5c0-10.3,8.4-18.7,18.7-18.7h262.7  c10.3,0,18.7,8.4,18.7,18.7v408.3C469.5,454.1,461.1,462.5,450.8,462.5z"
   id="path3896" />


<g
   id="g3948">
	<path
   d="M207,69.7h-3.1l-1.2-7.8h-7l-1.2,7.8h-3v-0.1l6.3-35.2h3.1L207,69.7z M202.2,59.1l-3.1-19l-3.1,19H202.2z"
   id="path3946" />
</g>
<g
   id="g3952">
	<path
   d="M430.4,413.3h3.1l1.2,7.8h7l1.2-7.8h3v0.1l-6.3,35.2h-3.1L430.4,413.3z M435.2,423.9l3.1,19l3.1-19H435.2z"
   id="path3950" />
</g>
<g
   style="opacity:0.29;"
   id="g3994">
	<polygon
   style="fill:#4F4C48;"
   points="318.2,194 305.2,206 318.2,223  "
   id="polygon3954" />
	<polygon
   style="fill:#999490;"
   points="318.2,194 331.2,207 318.2,223  "
   id="polygon3956" />
	<polygon
   style="fill:#4E4B49;"
   points="331.2,207 342.2,223 318.2,223  "
   id="polygon3958" />
	<polygon
   style="fill:#4C4945;"
   points="342.2,223 350.2,241 334.2,248 332,233.2  "
   id="polygon3960" />
	<polygon
   style="fill:#6C6963;"
   points="350.2,241 349.2,261 334.2,248  "
   id="polygon3962" />
	<polygon
   style="fill:#B1AEAA;"
   points="350.2,261 336.2,269 334.2,248  "
   id="polygon3964" />
	<polygon
   style="fill:#4F4C48;"
   points="336.2,269 319.2,261 334.2,248  "
   id="polygon3966" />
	<polygon
   style="fill:#74716D;"
   points="322.5,258.2 318.2,248 332,233 334.2,248  "
   id="polygon3968" />
	<polygon
   points="304.7,233.5 331.7,233.5 318.2,248  "
   id="polygon3970" />
	<polygon
   style="fill:#716D6B;"
   points="318.2,223 331.2,234 342.2,223  "
   id="polygon3972" />
	<polygon
   style="fill:#726F6B;"
   points="305.2,206 305.2,234 318.2,223  "
   id="polygon3974" />
	<polygon
   style="fill:#4D4A47;"
   points="305.2,206 292.2,223 305.2,234  "
   id="polygon3976" />
	<polygon
   style="fill:#73706D;"
   points="292.2,223 283.2,242 302.2,250 305.2,234  "
   id="polygon3978" />
	<polygon
   style="fill:#AAA6A2;"
   points="305.2,234 318.2,248 315.2,258 302.2,250  "
   id="polygon3980" />
	<polygon
   style="fill:#5F5C5A;"
   points="318.2,223 318.2,234 332.2,234  "
   id="polygon3982" />
	<polygon
   style="fill:#9A9793;"
   points="318.2,223 305.2,234 318.2,234  "
   id="polygon3984" />
	<polygon
   style="fill:#504D4B;"
   points="283.2,242 285.2,263 302.2,250  "
   id="polygon3986" />
	<polygon
   style="fill:#999694;"
   points="302.2,250 300.2,271 285.2,263  "
   id="polygon3988" />
	<polygon
   style="fill:#73706E;"
   points="300.2,271 315.2,258 302.2,250  "
   id="polygon3990" />
	<polygon
   style="fill:#393531;"
   points="318.2,248 308.2,273 329.2,273  "
   id="polygon3992" />
</g>
<g
   id="g4036">
	<polygon
   style="fill:#4F4C48;"
   points="321.2,193 308.2,205 321.2,222  "
   id="polygon3996" />
	<polygon
   style="fill:#999490;"
   points="321.2,193 334.2,206 321.2,222  "
   id="polygon3998" />
	<polygon
   style="fill:#4E4B49;"
   points="334.2,206 345.2,222 321.2,222  "
   id="polygon4000" />
	<polygon
   style="fill:#4C4945;"
   points="345.2,222 353.2,240 337.2,247 335,232.2  "
   id="polygon4002" />
	<polygon
   style="fill:#6C6963;"
   points="353.2,240 352.2,260 337.2,247  "
   id="polygon4004" />
	<polygon
   style="fill:#B1AEAA;"
   points="353.2,260 339.2,268 337.2,247  "
   id="polygon4006" />
	<polygon
   style="fill:#4F4C48;"
   points="339.2,268 322.2,260 337.2,247  "
   id="polygon4008" />
	<polygon
   style="fill:#74716D;"
   points="325.5,257.2 321.2,247 335,232 337.2,247  "
   id="polygon4010" />
	<polygon
   points="307.7,232.5 334.7,232.5 321.2,247  "
   id="polygon4012" />
	<polygon
   style="fill:#716D6B;"
   points="321.2,222 334.2,233 345.2,222  "
   id="polygon4014" />
	<polygon
   style="fill:#726F6B;"
   points="308.2,205 308.2,233 321.2,222  "
   id="polygon4016" />
	<polygon
   style="fill:#4D4A47;"
   points="308.2,205 295.2,222 308.2,233  "
   id="polygon4018" />
	<polygon
   style="fill:#73706D;"
   points="295.2,222 286.2,241 305.2,249 308.2,233  "
   id="polygon4020" />
	<polygon
   style="fill:#AAA6A2;"
   points="308.2,233 321.2,247 318.2,257 305.2,249  "
   id="polygon4022" />
	<polygon
   style="fill:#5F5C5A;"
   points="321.2,222 321.2,233 335.2,233  "
   id="polygon4024" />
	<polygon
   style="fill:#9A9793;"
   points="321.2,222 308.2,233 321.2,233  "
   id="polygon4026" />
	<polygon
   style="fill:#504D4B;"
   points="286.2,241 288.2,262 305.2,249  "
   id="polygon4028" />
	<polygon
   style="fill:#999694;"
   points="305.2,249 303.2,270 288.2,262  "
   id="polygon4030" />
	<polygon
   style="fill:#73706E;"
   points="303.2,270 318.2,257 305.2,249  "
   id="polygon4032" />
	<polygon
   style="fill:#393531;"
   points="321.2,247 311.2,272 332.2,272  "
   id="polygon4034" />
</g>
<g
   id="g4038">
</g>
<g
   id="g4040">
</g>
<g
   id="g4042">
</g>
<g
   id="g4044">
</g>
<g
   id="g4046">
</g>
<g
   id="g4048">
</g>
<g
   id="g4050">
</g>
<g
   id="g4052">
</g>
<g
   id="g4054">
</g>
<g
   id="g4056">
</g>
<g
   id="g4058">
</g>
<g
   id="g4060">
</g>
<g
   id="g4062">
</g>
<g
   id="g4064">
</g>
<g
   id="g4066">
</g>
</svg>