<?xml version="1.0" encoding="utf-8"?>
<!-- Generator: Adobe Illustrator 22.0.0, SVG Export Plug-In . SVG Version: 6.00 Build 0)  -->
<svg version="1.1" id="Layer_1" xmlns="http://www.w3.org/2000/svg" xmlns:xlink="http://www.w3.org/1999/xlink" x="0px" y="0px"
	 viewBox="0 0 640 480" style="enable-background:new 0 0 640 480;" xml:space="preserve">
<rect style="fill:#494643;" width="640" height="480"/>
<path style="fill:#FFFFFF;" d="M450.8,462.5H188.2c-10.3,0-18.7-8.4-18.7-18.7V35.5c0-10.3,8.4-18.7,18.7-18.7h262.7
	c10.3,0,18.7,8.4,18.7,18.7v408.3C469.5,454.1,461.1,462.5,450.8,462.5z"/>
<g style="opacity:0.1;">
	<polygon points="319.9,186.5 306.3,202.2 331.4,202.2 	"/>
	<polygon points="352.8,229.9 330.9,201.7 330.9,229.9 	"/>
	<polygon points="306.3,230.4 330.9,229.9 306.3,202.2 	"/>
	<polygon points="281.8,229.9 306.3,202.2 306.3,230.4 	"/>
	<polygon points="330.9,201.7 306.3,202.2 330.9,229.9 	"/>
	<polygon points="319.4,273.8 339.2,247.6 330.9,229.9 319.4,243.4 	"/>
	<polygon points="306.3,230.4 305.8,259.1 319.4,273.8 319.4,243.4 	"/>
	<polygon points="330.9,229.9 352.8,229.9 339.2,247.6 	"/>
	<polygon points="306.3,230.4 319.4,243.4 330.9,229.9 	"/>
	<polygon points="281.8,229.9 295.3,245.5 306.3,230.4 	"/>
	<polygon points="305.8,259.1 295.3,245.5 306.3,230.4 	"/>
</g>
<g>
	<polygon style="fill:#FF7A74;" points="321,186.5 308,201.5 332,201.5 	"/>
	<polygon style="fill:#FFB3AF;" points="352.5,228 331.5,201 331.5,228 	"/>
	<polygon style="fill:#FB7D71;" points="308,228.5 331.5,228 308,201.5 	"/>
	<polygon style="fill:#FE4950;" points="284.5,228 308,201.5 308,228.5 	"/>
	<polygon style="fill:#FF4F50;" points="331.5,201 308,201.5 331.5,228 	"/>
	<polygon style="fill:#FF7F75;" points="320.5,270 339.5,245 331.5,228 320.5,241 	"/>
	<polygon style="fill:#FF9189;" points="308,228.5 307.5,256 320.5,270 320.5,241 	"/>
	<polygon style="fill:#FD9087;" points="331.5,228 352.5,228 339.5,245 	"/>
	<polygon style="fill:#FF0000;" points="308,228.5 320.5,241 331.5,228 	"/>
	<polygon style="fill:#FFB5AF;" points="284.5,228 297.5,243 308,228.5 	"/>
	<polygon style="fill:#EF5D4F;" points="307.5,256 297.5,243 308,228.5 	"/>
</g>
<g>
	<path style="fill:#FF0000;" d="M207,69.7h-3.1l-1.2-7.8h-7l-1.2,7.8h-3v-0.1l6.3-35.2h3.1L207,69.7z M202.2,59.1l-3.1-19l-3.1,19
		H202.2z"/>
</g>
<g>
	<path style="fill:#FF0000;" d="M430.4,413.3h3.1l1.2,7.8h7l1.2-7.8h3v0.1l-6.3,35.2h-3.1L430.4,413.3z M435.2,423.9l3.1,19l3.1-19
		H435.2z"/>
</g>
<g>
	<polygon style="fill:#4F4C48;" points="-71.8,191 -84.8,203 -71.8,220 	"/>
	<polygon style="fill:#999490;" points="-71.8,191 -58.8,204 -71.8,220 	"/>
	<polygon style="fill:#4E4B49;" points="-58.8,204 -47.8,220 -71.8,220 	"/>
	<polygon style="fill:#4C4945;" points="-47.8,220 -39.8,238 -55.8,245 -58,230.2 	"/>
	<polygon style="fill:#6C6963;" points="-39.8,238 -40.8,258 -55.8,245 	"/>
	<polygon style="fill:#B1AEAA;" points="-39.8,258 -53.8,266 -55.8,245 	"/>
	<polygon style="fill:#4F4C48;" points="-53.8,266 -70.8,258 -55.8,245 	"/>
	<polygon style="fill:#74716D;" points="-67.5,255.2 -71.8,245 -58,230 -55.8,245 	"/>
	<polygon points="-85.3,230.5 -58.3,230.5 -71.8,245 	"/>
	<polygon style="fill:#716D6B;" points="-71.8,220 -58.8,231 -47.8,220 	"/>
	<polygon style="fill:#726F6B;" points="-84.8,203 -84.8,231 -71.8,220 	"/>
	<polygon style="fill:#4D4A47;" points="-84.8,203 -97.8,220 -84.8,231 	"/>
	<polygon style="fill:#73706D;" points="-97.8,220 -106.8,239 -87.8,247 -84.8,231 	"/>
	<polygon style="fill:#AAA6A2;" points="-84.8,231 -71.8,245 -74.8,255 -87.8,247 	"/>
	<polygon style="fill:#5F5C5A;" points="-71.8,220 -71.8,231 -57.8,231 	"/>
	<polygon style="fill:#9A9793;" points="-71.8,220 -84.8,231 -71.8,231 	"/>
	<polygon style="fill:#504D4B;" points="-106.8,239 -104.8,260 -87.8,247 	"/>
	<polygon style="fill:#999694;" points="-87.8,247 -89.8,268 -104.8,260 	"/>
	<polygon style="fill:#73706E;" points="-89.8,268 -74.8,255 -87.8,247 	"/>
	<polygon style="fill:#393531;" points="-71.8,245 -81.8,270 -60.8,270 	"/>
</g>
<g>
</g>
<g>
</g>
<g>
</g>
<g>
</g>
<g>
</g>
<g>
</g>
<g>
</g>
<g>
</g>
<g>
</g>
<g>
</g>
<g>
</g>
<g>
</g>
<g>
</g>
<g>
</g>
<g>
</g>
</svg>
