<?xml version="1.0" encoding="utf-8"?>
<!-- Generator: Adobe Illustrator 22.0.0, SVG Export Plug-In . SVG Version: 6.00 Build 0)  -->
<svg version="1.1" id="Layer_1" xmlns="http://www.w3.org/2000/svg" xmlns:xlink="http://www.w3.org/1999/xlink" x="0px" y="0px"
	 viewBox="0 0 362.6 283" style="enable-background:new 0 0 362.6 283;" xml:space="preserve">
<g>
	<polygon style="fill:#EF7975;" points="190,104.1 177,119.1 201,119.1 	"/>
	<polygon style="fill:#F6B1B0;" points="221.5,145.6 200.5,118.6 200.5,145.6 	"/>
	<polygon style="fill:#EF7C73;" points="177,146.1 200.5,145.6 177,119.1 	"/>
	<polygon style="fill:#E94C54;" points="153.5,145.6 177,119.1 177,146.1 	"/>
	<polygon style="fill:#EA5154;" points="200.5,118.6 177,119.1 200.5,145.6 	"/>
	<polygon style="fill:#EF7D77;" points="189.5,187.6 208.5,162.6 200.5,145.6 189.5,158.6 	"/>
	<polygon style="fill:#F28F8A;" points="177,146.1 176.5,173.6 189.5,187.6 189.5,158.6 	"/>
	<polygon style="fill:#F28E89;" points="200.5,145.6 221.5,145.6 208.5,162.6 	"/>
	<polygon style="fill:#E52521;" points="177,146.1 189.5,158.6 200.5,145.6 	"/>
	<polygon style="fill:#F6B3B1;" points="153.5,145.6 166.5,160.6 177,146.1 	"/>
	<polygon style="fill:#EB5E50;" points="176.5,173.6 166.5,160.6 177,146.1 	"/>
</g>
<g>
</g>
<g>
</g>
<g>
</g>
<g>
</g>
<g>
</g>
<g>
</g>
<g>
</g>
<g>
</g>
<g>
</g>
<g>
</g>
<g>
</g>
<g>
</g>
<g>
</g>
<g>
</g>
<g>
</g>
</svg>
