<?xml version="1.0" encoding="utf-8"?>
<!-- Generator: Adobe Illustrator 22.0.0, SVG Export Plug-In . SVG Version: 6.00 Build 0)  -->
<svg version="1.1" xmlns="http://www.w3.org/2000/svg" xmlns:xlink="http://www.w3.org/1999/xlink" x="0px" y="0px"
	 viewBox="0 0 640 480" style="enable-background:new 0 0 640 480;" xml:space="preserve">
<g id="Layer_3">
	<rect style="fill:#494643;" width="640" height="480"/>
</g>
<g id="Layer_1">
	<path style="fill:#FFFFFF;" d="M440.8,460H178.4c-10.2,0-18.6-8.4-18.6-18.6V33.6c0-10.2,8.4-18.6,18.6-18.6h262.3
		c10.2,0,18.6,8.4,18.6,18.6v407.7C459.4,451.6,451,460,440.8,460z"/>
	<g>
		<path style="fill:#FF3717;" d="M200.1,70h-3.2l-1.3-8h-7.1l-1.3,8h-3.1v-0.1l6.4-35.9h3.1L200.1,70z M195.3,59.2l-3.1-19.5
			L189,59.2H195.3z"/>
	</g>
	<g>
		<path style="fill:#FF3717;" d="M430.1,413.2h3.2l1.3,8h7.1l1.3-8h3.1v0.1l-6.4,35.9h-3.1L430.1,413.2z M435,424l3.1,19.5l3.2-19.5
			H435z"/>
	</g>
	<g style="opacity:0.37;">
		<g>
			<polygon style="fill:#4A4743;" points="-155.7,128.1 -135.5,117.3 -133.9,149.9 			"/>
			<polygon style="fill:#403B35;" points="-114.5,127.4 -135.5,117.3 -133.9,149.9 			"/>
			<polygon style="fill:#9D9896;" points="-113,161.5 -101.5,149.9 -114.5,127.4 -133.9,149.9 			"/>
			<polygon style="fill:#ADA8A6;" points="-134.7,181.7 -111.4,161.5 -133.9,149.9 			"/>
			<polygon style="fill:#73706C;" points="-158,161.5 -164.2,149.1 -155.7,128.1 -133.9,149.9 			"/>
			<polygon style="fill:#53504C;" points="-134.7,181.7 -158,161.5 -133.9,149.9 			"/>
		</g>
		<polygon style="fill:#ABA7A3;" points="-109.9,158.4 -82.7,171.6 -106.8,192.6 		"/>
		<polygon style="fill:#514D49;" points="-75.7,192.6 -82.7,171.6 -106.8,192.6 		"/>
		<polygon style="fill:#716E6C;" points="-86.6,214.3 -75.7,192.6 -106.8,192.6 		"/>
		<polygon style="fill:#4D4A46;" points="-125.4,214.3 -106.8,222.1 -86.6,214.3 -106.8,192.6 		"/>
		<polygon style="fill:#4F4C48;" points="-134.7,181.7 -109.9,158.4 -106.8,192.6 		"/>
		<polygon style="fill:#605D59;" points="-125.4,214.3 -134.7,181.7 -106.8,192.6 		"/>
		<polygon style="fill:#726F6B;" points="-158.9,159.8 -134.7,181.7 -164.2,192.6 		"/>
		<polygon style="fill:#484541;" points="-181.3,169.3 -158.9,159.8 -164.2,192.6 		"/>
		<polygon style="fill:#ABA4A1;" points="-146.6,214.3 -134.7,181.7 -164.2,192.6 		"/>
		<polygon style="fill:#494643;" points="-164.2,220.5 -146.6,214.3 -164.2,192.6 		"/>
		<polygon style="fill:#64615E;" points="-196.8,191 -185.5,211.8 -164.2,220.5 -164.2,192.6 		"/>
		<polygon style="fill:#7B7874;" points="-181.3,169.3 -196.8,191 -164.2,192.6 		"/>
		<polygon style="fill:#3E3933;" points="-134.7,181.7 -153.3,232.9 -119.2,234.5 		"/>
	</g>
	<g>
		<g>
			<polygon style="fill:#4A4743;" points="-219.8,159.7 -199.6,148.8 -198.1,181.4 			"/>
			<polygon style="fill:#403B35;" points="-178.7,158.9 -199.6,148.8 -198.1,181.4 			"/>
			<polygon style="fill:#9D9896;" points="-177.1,193 -165.7,181.4 -178.7,158.9 -198.1,181.4 			"/>
			<polygon style="fill:#ADA8A6;" points="-198.8,213.2 -175.6,193 -198.1,181.4 			"/>
			<polygon style="fill:#73706C;" points="-222.1,193 -228.3,180.6 -219.8,159.7 -198.1,181.4 			"/>
			<polygon style="fill:#53504C;" points="-198.8,213.2 -222.1,193 -198.1,181.4 			"/>
		</g>
		<polygon style="fill:#ABA7A3;" points="-174,189.9 -146.8,203.1 -170.9,224.1 		"/>
		<polygon style="fill:#514D49;" points="-139.8,224.1 -146.8,203.1 -170.9,224.1 		"/>
		<polygon style="fill:#716E6C;" points="-150.7,245.8 -139.8,224.1 -170.9,224.1 		"/>
		<polygon style="fill:#4D4A46;" points="-189.5,245.8 -170.9,253.6 -150.7,245.8 -170.9,224.1 		"/>
		<polygon style="fill:#4F4C48;" points="-198.8,213.2 -174,189.9 -170.9,224.1 		"/>
		<polygon style="fill:#605D59;" points="-189.5,245.8 -198.8,213.2 -170.9,224.1 		"/>
		<polygon style="fill:#726F6B;" points="-223,191.3 -198.8,213.2 -228.3,224.1 		"/>
		<polygon style="fill:#484541;" points="-245.4,200.8 -223,191.3 -228.3,224.1 		"/>
		<polygon style="fill:#ABA4A1;" points="-210.7,245.8 -198.8,213.2 -228.3,224.1 		"/>
		<polygon style="fill:#494643;" points="-228.3,252 -210.7,245.8 -228.3,224.1 		"/>
		<polygon style="fill:#64615E;" points="-260.9,222.5 -249.6,243.3 -228.3,252 -228.3,224.1 		"/>
		<polygon style="fill:#7B7874;" points="-245.4,200.8 -260.9,222.5 -228.3,224.1 		"/>
		<polygon style="fill:#3E3933;" points="-198.8,213.2 -217.5,264.4 -183.3,266 		"/>
	</g>
	<g>
		<polygon style="fill:#F3BCAD;" points="294.4,189.1 278.3,198.9 296.2,214.3 		"/>
		<polygon style="fill:#F97C71;" points="294.4,189.1 315.9,198.3 314.7,214.3 297.4,231.6 		"/>
		<polygon style="fill:#FF7C75;" points="315.9,198.3 335.6,186 354.1,195.9 335.4,215.2 		"/>
		<polygon style="fill:#F77C78;" points="356.5,220.5 345.5,245.1 330.7,231.6 335.6,214.3 		"/>
		<polygon style="fill:#FF534B;" points="330.7,231.6 328.2,268.5 345.9,244.5 		"/>
		<polygon style="fill:#FC5B59;" points="328.2,268.5 316,282 313.4,243.9 		"/>
		<polygon style="fill:#FF7B71;" points="313.4,243.9 330.7,231.6 328.2,268.5 		"/>
		<polygon style="fill:#FFA89D;" points="299.9,264.8 316,282 313.4,243.9 		"/>
		<polygon style="fill:#F65457;" points="285.1,243.9 299.9,264.8 313.4,243.9 		"/>
		<polygon style="fill:#ED8372;" points="297.4,231.6 285.1,243.9 313.4,243.9 		"/>
		<polygon style="fill:#FF0045;" points="297.4,231.6 330.7,231.6 313.4,243.9 		"/>
		<polygon style="fill:#FF7E73;" points="297.4,231.6 335.4,215.2 330.7,231.6 		"/>
		<polygon style="fill:#F8A395;" points="314.7,214.3 322.1,221.7 297.4,231.6 		"/>
		<polygon style="fill:#FFB8AD;" points="315.9,198.3 314.7,214.3 322.1,221.7 335.4,215.2 		"/>
		<polygon style="fill:#FF8379;" points="279,198.3 276.5,222.9 296.2,214.3 		"/>
		<polygon style="fill:#FD5050;" points="276.5,222.9 285.1,243.9 297.4,231.6 296.2,214.3 		"/>
		<polygon style="fill:#F44E4B;" points="354.1,195.9 356.5,220.5 335.4,215.2 		"/>
	</g>
</g>
<g id="Layer_2" style="opacity:0.36;">
	<g>
	</g>
	<g>
	</g>
	<g>
	</g>
	<g>
	</g>
	<g>
	</g>
	<g>
	</g>
	<g>
	</g>
	<g>
	</g>
	<g>
	</g>
	<g>
	</g>
	<g>
	</g>
	<g>
	</g>
	<g>
	</g>
	<g>
	</g>
	<g>
	</g>
</g>
</svg>
