<?xml version="1.0" encoding="utf-8"?>
<!-- Generator: Adobe Illustrator 22.0.0, SVG Export Plug-In . SVG Version: 6.00 Build 0)  -->
<svg version="1.1" xmlns="http://www.w3.org/2000/svg" xmlns:xlink="http://www.w3.org/1999/xlink" x="0px" y="0px"
	 viewBox="0 0 640 480" style="enable-background:new 0 0 640 480;" xml:space="preserve">
<g id="Layer_3">
	<rect style="fill:#494643;" width="640" height="480"/>
</g>
<g id="Layer_1">
	<path style="fill:#FFFFFF;" d="M451.8,462H189.4c-10.2,0-18.6-8.4-18.6-18.6V35.6c0-10.2,8.4-18.6,18.6-18.6h262.3
		c10.2,0,18.6,8.4,18.6,18.6v407.7C470.4,453.6,462,462,451.8,462z"/>
	<g>
		<path d="M207.1,70h-3.2l-1.3-8h-7.1l-1.3,8h-3.1v-0.1l6.4-35.9h3.1L207.1,70z M202.3,59.2l-3.1-19.5L196,59.2H202.3z"/>
	</g>
	<g>
		<path d="M430.1,413.2h3.2l1.3,8h7.1l1.3-8h3.1v0.1l-6.4,35.9h-3.1L430.1,413.2z M435,424l3.1,19.5l3.2-19.5H435z"/>
	</g>
	<g style="opacity:0.37;">
		<g>
			<polygon style="fill:#4A4743;" points="297.3,177.1 317.5,166.3 319.1,198.9 			"/>
			<polygon style="fill:#403B35;" points="338.5,176.4 317.5,166.3 319.1,198.9 			"/>
			<polygon style="fill:#9D9896;" points="340,210.5 351.5,198.9 338.5,176.4 319.1,198.9 			"/>
			<polygon style="fill:#ADA8A6;" points="318.3,230.7 341.6,210.5 319.1,198.9 			"/>
			<polygon style="fill:#73706C;" points="295,210.5 288.8,198.1 297.3,177.1 319.1,198.9 			"/>
			<polygon style="fill:#53504C;" points="318.3,230.7 295,210.5 319.1,198.9 			"/>
		</g>
		<polygon style="fill:#ABA7A3;" points="343.1,207.4 370.3,220.6 346.2,241.6 		"/>
		<polygon style="fill:#514D49;" points="377.3,241.6 370.3,220.6 346.2,241.6 		"/>
		<polygon style="fill:#716E6C;" points="366.4,263.3 377.3,241.6 346.2,241.6 		"/>
		<polygon style="fill:#4D4A46;" points="327.6,263.3 346.2,271.1 366.4,263.3 346.2,241.6 		"/>
		<polygon style="fill:#4F4C48;" points="318.3,230.7 343.1,207.4 346.2,241.6 		"/>
		<polygon style="fill:#605D59;" points="327.6,263.3 318.3,230.7 346.2,241.6 		"/>
		<polygon style="fill:#726F6B;" points="294.1,208.8 318.3,230.7 288.8,241.6 		"/>
		<polygon style="fill:#484541;" points="271.7,218.3 294.1,208.8 288.8,241.6 		"/>
		<polygon style="fill:#ABA4A1;" points="306.4,263.3 318.3,230.7 288.8,241.6 		"/>
		<polygon style="fill:#494643;" points="288.8,269.5 306.4,263.3 288.8,241.6 		"/>
		<polygon style="fill:#64615E;" points="256.2,240 267.5,260.8 288.8,269.5 288.8,241.6 		"/>
		<polygon style="fill:#7B7874;" points="271.7,218.3 256.2,240 288.8,241.6 		"/>
		<polygon style="fill:#3E3933;" points="318.3,230.7 299.7,281.9 333.8,283.5 		"/>
	</g>
	<g>
		<g>
			<polygon style="fill:#4A4743;" points="301.2,173.7 321.4,162.8 322.9,195.4 			"/>
			<polygon style="fill:#403B35;" points="342.3,172.9 321.4,162.8 322.9,195.4 			"/>
			<polygon style="fill:#9D9896;" points="343.9,207 355.3,195.4 342.3,172.9 322.9,195.4 			"/>
			<polygon style="fill:#ADA8A6;" points="322.2,227.2 345.4,207 322.9,195.4 			"/>
			<polygon style="fill:#73706C;" points="298.9,207 292.7,194.6 301.2,173.7 322.9,195.4 			"/>
			<polygon style="fill:#53504C;" points="322.2,227.2 298.9,207 322.9,195.4 			"/>
		</g>
		<polygon style="fill:#ABA7A3;" points="347,203.9 374.2,217.1 350.1,238.1 		"/>
		<polygon style="fill:#514D49;" points="381.2,238.1 374.2,217.1 350.1,238.1 		"/>
		<polygon style="fill:#716E6C;" points="370.3,259.8 381.2,238.1 350.1,238.1 		"/>
		<polygon style="fill:#4D4A46;" points="331.5,259.8 350.1,267.6 370.3,259.8 350.1,238.1 		"/>
		<polygon style="fill:#4F4C48;" points="322.2,227.2 347,203.9 350.1,238.1 		"/>
		<polygon style="fill:#605D59;" points="331.5,259.8 322.2,227.2 350.1,238.1 		"/>
		<polygon style="fill:#726F6B;" points="298,205.3 322.2,227.2 292.7,238.1 		"/>
		<polygon style="fill:#484541;" points="275.6,214.8 298,205.3 292.7,238.1 		"/>
		<polygon style="fill:#ABA4A1;" points="310.3,259.8 322.2,227.2 292.7,238.1 		"/>
		<polygon style="fill:#494643;" points="292.7,266 310.3,259.8 292.7,238.1 		"/>
		<polygon style="fill:#64615E;" points="260.1,236.5 271.4,257.3 292.7,266 292.7,238.1 		"/>
		<polygon style="fill:#7B7874;" points="275.6,214.8 260.1,236.5 292.7,238.1 		"/>
		<polygon style="fill:#3E3933;" points="322.2,227.2 303.5,278.4 337.7,280 		"/>
	</g>
</g>
<g id="Layer_2" style="opacity:0.36;">
	<g>
	</g>
	<g>
	</g>
	<g>
	</g>
	<g>
	</g>
	<g>
	</g>
	<g>
	</g>
	<g>
	</g>
	<g>
	</g>
	<g>
	</g>
	<g>
	</g>
	<g>
	</g>
	<g>
	</g>
	<g>
	</g>
	<g>
	</g>
	<g>
	</g>
</g>
</svg>
