<?xml version="1.0" encoding="utf-8"?>
<!-- Generator: Adobe Illustrator 23.0.1, SVG Export Plug-In . SVG Version: 6.00 Build 0)  -->
<svg version="1.1" baseProfile="basic" id="Layer_1"
	 xmlns="http://www.w3.org/2000/svg" xmlns:xlink="http://www.w3.org/1999/xlink" x="0px" y="0px" viewBox="0 0 300 300"
	 xml:space="preserve">
<g>
	
		<ellipse transform="matrix(0.9996 -2.779398e-02 2.779398e-02 0.9996 -4.1217 4.2136)" style="fill:#FFCF02;" cx="149.5" cy="150.4" rx="86.6" ry="86.6"/>
	<g>
		<g>
			<g>
				<path style="fill:#262014;" d="M164.6,114.6c-5.5,1.8-12.4,2.1-15.1,2.2c-2.7-0.1-9.6-0.4-15.1-2.2c-10.5-3.5-27.5-5.7-40.4-5.4
					c-9.6,0.2-19.5,1.5-25.6,2.8c-2.7,0.6-4.5,3.2-3.8,6l0.7,2.8c0.4,1.6,1.7,2.9,3.3,3.4c0.8,0.3,1.6,0.8,2,1.8
					c1.1,3,7.1,20.6,10.3,27.2c2.7,5.3,9.9,9.9,26.6,10c23.8,0.1,32.1-15.7,35.9-25.8c0.4-1.1,1-3.1,1.5-5.1c0.8-2.8,2.5-5.6,3.3-6
					c0.5-0.2,1-0.4,1.5-0.4c0.5,0,1.1,0.2,1.5,0.4c0.8,0.4,2.4,3.2,3.2,6c0.5,2,1.1,4,1.5,5.1c3.8,10.2,12,25.9,35.8,25.8
					c16.7-0.1,23.9-4.6,26.6-10c3.2-6.5,9.2-24.2,10.3-27.2c0.4-1,1.1-1.5,2-1.8c1.6-0.6,2.9-1.8,3.3-3.4l0.7-2.8
					c0.6-2.7-1.1-5.4-3.8-6c-6.2-1.2-16.1-2.5-25.6-2.8C192.1,108.9,175.2,111.1,164.6,114.6z"/>
			</g>
			<g>
				<path style="fill:#483D23;" d="M160.7,130.4c0.5,11.5,11.7,22.6,22.2,25.2c15.5,3.7,27.1,0.4,33.7-13.8c2-4.3,6.2-13.6,6-18.6
					c-0.5-8.7-11.5-7.1-18.5-7.3C203.3,115.8,160,114.6,160.7,130.4z"/>
			</g>
			<g>
				<path style="fill:#483D23;" d="M138.8,130.4c-0.5,11.5-11.7,22.6-22.2,25.2c-15.5,3.7-27.1,0.4-33.7-13.8
					c-2-4.3-6.2-13.6-6-18.6c0.5-8.7,11.5-7.1,18.5-7.3C96.1,115.8,139.5,114.6,138.8,130.4z"/>
			</g>
		</g>
	</g>
	<g>
		<path style="fill:#562914;" d="M168,194.7c-2.3,0-4.6-0.2-7-0.5c-2.3-0.3-3.9-2.5-3.6-4.8c0.3-2.3,2.5-3.9,4.8-3.6
			c13.4,2,25.3-3.1,30.3-12.9c1.1-2.1,3.6-2.9,5.7-1.8c2.1,1.1,2.9,3.6,1.9,5.7C194.3,188,182.1,194.7,168,194.7z"/>
	</g>
</g>
</svg>
