<?xml version="1.0" encoding="utf-8"?>
<!-- Generator: Adobe Illustrator 23.0.1, SVG Export Plug-In . SVG Version: 6.00 Build 0)  -->
<svg version="1.1" baseProfile="basic" id="Layer_1"
	 xmlns="http://www.w3.org/2000/svg" xmlns:xlink="http://www.w3.org/1999/xlink" x="0px" y="0px" viewBox="0 0 300 300"
	 xml:space="preserve">
<g>
	<g>
		<path style="fill:#FFCF02;" d="M236.3,150.4c0,47.8-38.8,86.6-86.6,86.6c-47.8,0-86.6-38.7-86.6-86.6c0-47.8,38.7-86.6,86.6-86.6
			C197.5,63.8,236.3,102.6,236.3,150.4z"/>
	</g>
	<g>
		<g>
			<g>
				<path style="fill:#562914;" d="M217.5,120c0,7.6-4.1,13.8-9.1,13.8c-5,0-9.1-6.2-9.1-13.8c0-7.6,4.1-13.8,9.1-13.8
					C213.4,106.2,217.5,112.3,217.5,120z"/>
			</g>
			<g>
				<path style="fill:#562914;" d="M145.2,120c0,7.6-4.1,13.8-9.1,13.8c-5,0-9.1-6.2-9.1-13.8c0-7.6,4.1-13.8,9.1-13.8
					C141.1,106.2,145.2,112.3,145.2,120z"/>
			</g>
		</g>
	</g>
</g>
</svg>
