<?xml version="1.0" encoding="utf-8"?>
<!-- Generator: Adobe Illustrator 23.0.1, SVG Export Plug-In . SVG Version: 6.00 Build 0)  -->
<svg version="1.1" baseProfile="basic" id="Layer_1"
	 xmlns="http://www.w3.org/2000/svg" xmlns:xlink="http://www.w3.org/1999/xlink" x="0px" y="0px" viewBox="0 0 300 300"
	 xml:space="preserve">
<g>
	
		<ellipse transform="matrix(0.9867 -0.1624 0.1624 0.9867 -22.4901 26.3353)" style="fill:#FFCF02;" cx="149.9" cy="150.8" rx="86.6" ry="86.6"/>
	<g>
		<g>
			<path style="fill:#FFFFFF;" d="M150.8,165.7c-6.6,0-12.5,2.8-16.6,7.3h33.2C163.3,168.6,157.4,165.7,150.8,165.7z"/>
		</g>
		<g>
			<g>
				<path style="fill:#562914;" d="M164.3,204.9c5.4-4,8.8-10.3,8.8-17.4c0-5.6-2.2-10.7-5.7-14.5h-33.2c-3.5,3.9-5.7,8.9-5.7,14.5
					c0,7.1,3.5,13.4,8.8,17.4c3.9-2.2,8.5-3.5,13.4-3.5C155.8,201.4,160.4,202.7,164.3,204.9z"/>
			</g>
			<g>
				<path style="fill:#CD352F;" d="M164.3,204.9c-3.9-2.2-8.5-3.5-13.4-3.5c-5,0-9.6,1.3-13.4,3.5c3.7,2.8,8.4,4.4,13.4,4.4
					C155.9,209.4,160.5,207.7,164.3,204.9z"/>
			</g>
		</g>
	</g>
	<g>
		<g>
			<path style="fill:#562914;" d="M97.6,114.8c-0.7,0-1.4-0.3-1.9-0.9c-0.9-1-0.8-2.6,0.3-3.4c5.6-4.8,12.7-7.8,20-8.4
				c1.3-0.1,2.5,0.9,2.6,2.2c0.1,1.3-0.9,2.5-2.2,2.6c-6.3,0.6-12.5,3.2-17.3,7.3C98.7,114.6,98.2,114.8,97.6,114.8z"/>
		</g>
		<g>
			<path style="fill:#562914;" d="M202.2,114.8c-0.6,0-1.1-0.2-1.6-0.6c-4.8-4.1-11-6.7-17.3-7.3c-1.3-0.1-2.3-1.3-2.2-2.6
				c0.1-1.3,1.3-2.3,2.7-2.2c7.3,0.7,14.4,3.7,20,8.4c1,0.9,1.1,2.4,0.3,3.4C203.5,114.5,202.8,114.8,202.2,114.8z"/>
		</g>
	</g>
	<g>
		<g>
			<g>
				<path style="fill:#FFFFFF;" d="M205,137.4c0,10.5-8.2,18.9-18.3,18.9c-10.1,0-18.3-8.5-18.3-18.9c0-10.4,8.2-18.9,18.3-18.9
					C196.8,118.5,205,127,205,137.4z"/>
			</g>
			<g>
				<path style="fill:#562914;" d="M194.6,137.4c0,4.5-3.5,8.1-7.8,8.1c-4.3,0-7.8-3.6-7.8-8.1c0-4.5,3.5-8.1,7.8-8.1
					C191.1,129.4,194.6,133,194.6,137.4z"/>
			</g>
		</g>
		<g>
			<g>
				<path style="fill:#FFFFFF;" d="M131.3,137.4c0,10.5-8.2,18.9-18.3,18.9c-10.1,0-18.3-8.5-18.3-18.9c0-10.4,8.2-18.9,18.3-18.9
					C123.1,118.5,131.3,127,131.3,137.4z"/>
			</g>
			<g>
				<path style="fill:#562914;" d="M120.8,137.4c0,4.5-3.5,8.1-7.8,8.1c-4.3,0-7.8-3.6-7.8-8.1c0-4.5,3.5-8.1,7.8-8.1
					C117.3,129.4,120.8,133,120.8,137.4z"/>
			</g>
		</g>
	</g>
</g>
</svg>
