<?xml version="1.0" encoding="utf-8"?>
<!-- Generator: Adobe Illustrator 23.0.1, SVG Export Plug-In . SVG Version: 6.00 Build 0)  -->
<svg version="1.1" baseProfile="basic" id="Layer_1"
	 xmlns="http://www.w3.org/2000/svg" xmlns:xlink="http://www.w3.org/1999/xlink" x="0px" y="0px" viewBox="0 0 300 300"
	 xml:space="preserve">
<g>
	
		<ellipse transform="matrix(0.2305 -0.9731 0.9731 0.2305 -30.9818 260.9608)" style="fill:#FFCF02;" cx="149.5" cy="150.1" rx="86.6" ry="86.6"/>
	<g>
		<path style="fill:#562914;" d="M189,176.9h-79c-2.3,0-4.2-1.9-4.2-4.2c0-2.3,1.9-4.2,4.2-4.2h79c2.3,0,4.2,1.9,4.2,4.2
			C193.2,175,191.3,176.9,189,176.9z"/>
	</g>
	<g>
		<g>
			<path style="fill:#562914;" d="M194.8,135.3c0,5-4.1,9.1-9.1,9.1c-5,0-9.1-4.1-9.1-9.1c0-5,4.1-9.1,9.1-9.1
				C190.7,126.2,194.8,130.3,194.8,135.3z"/>
		</g>
		<g>
			<path style="fill:#562914;" d="M122.5,135.3c0,5-4.1,9.1-9.1,9.1c-5,0-9.1-4.1-9.1-9.1c0-5,4.1-9.1,9.1-9.1
				C118.4,126.2,122.5,130.3,122.5,135.3z"/>
		</g>
	</g>
</g>
</svg>
