<?xml version="1.0" encoding="utf-8"?>
<!-- Generator: Adobe Illustrator 23.0.1, SVG Export Plug-In . SVG Version: 6.00 Build 0)  -->
<svg version="1.1" baseProfile="basic" id="Layer_1"
	 xmlns="http://www.w3.org/2000/svg" xmlns:xlink="http://www.w3.org/1999/xlink" x="0px" y="0px" viewBox="0 0 300 300"
	 xml:space="preserve">
<g>
	
		<ellipse transform="matrix(0.9874 -0.1581 0.1581 0.9874 -21.8641 25.5471)" style="fill:#FFCF02;" cx="149.7" cy="150.2" rx="86.6" ry="86.6"/>
	<g>
		<g>
			<g>
				<path style="fill:#562914;" d="M199.8,139.1c0.9,0.6,2.1-0.1,2.1-1.1c0,0,0,0,0,0c0-6.3-5.1-11.4-11.4-11.4
					c-6.3,0-11.4,5.1-11.4,11.4c0,0,0,0,0,0c0,1.1,1.2,1.7,2.1,1.1c2.7-1.7,5.9-2.7,9.4-2.7C193.9,136.4,197.1,137.4,199.8,139.1z"
					/>
			</g>
		</g>
		<g>
			<g>
				<path style="fill:#562914;" d="M118.2,139.1c0.9,0.6,2.1-0.1,2.1-1.1c0,0,0,0,0,0c0-6.3-5.1-11.4-11.4-11.4
					c-6.3,0-11.4,5.1-11.4,11.4c0,0,0,0,0,0c0,1.1,1.2,1.7,2.1,1.1c2.7-1.7,5.9-2.7,9.4-2.7C112.3,136.4,115.5,137.4,118.2,139.1z"
					/>
			</g>
		</g>
	</g>
	<g>
		<g>
			<g>
				<path style="fill:#562914;" d="M150.2,189.7c-14.5,0-28.8-5.6-39.3-15.4c-1.7-1.6-1.8-4.3-0.2-6c1.6-1.7,4.3-1.8,6-0.2
					c9,8.3,21.2,13.1,33.6,13.1c11.9,0,23.8-4.5,32.7-12.3c1.8-1.5,4.4-1.4,6,0.4c1.5,1.8,1.4,4.4-0.4,6
					C177.9,184.5,164.3,189.7,150.2,189.7z"/>
			</g>
		</g>
	</g>
</g>
</svg>
